<mxfile host="app.diagrams.net" modified="2020-04-26T08:15:23.461Z" agent="5.0 (Windows)" etag="ohusyTUfUBoFPXs9GwDL" version="13.0.1" type="github">
  <diagram id="TUaeIwJqIPwaMvK1Nt-R" name="Page-1">
    <mxGraphModel dx="1117" dy="586" grid="1" gridSize="10" guides="1" tooltips="1" connect="1" arrows="1" fold="1" page="1" pageScale="1" pageWidth="850" pageHeight="1100" math="0" shadow="0">
      <root>
        <mxCell id="0" />
        <mxCell id="1" parent="0" />
        <mxCell id="8aeZjbQpbGjvfy1XVlZA-1" value="Customer" style="swimlane;fontStyle=0;childLayout=stackLayout;horizontal=1;startSize=26;fillColor=none;horizontalStack=0;resizeParent=1;resizeParentMax=0;resizeLast=0;collapsible=1;marginBottom=0;" parent="1" vertex="1">
          <mxGeometry x="217" y="20" width="160" height="100" as="geometry" />
        </mxCell>
        <mxCell id="8aeZjbQpbGjvfy1XVlZA-4" value="name: string&#xa;customerID: int&#xa;comments: List&lt;comment&gt;&#xa;UserPoints: RewardPoints&#xa;&#xa;&#xa;&#xa;" style="text;strokeColor=none;fillColor=none;align=left;verticalAlign=top;spacingLeft=4;spacingRight=4;overflow=hidden;rotatable=0;points=[[0,0.5],[1,0.5]];portConstraint=eastwest;" parent="8aeZjbQpbGjvfy1XVlZA-1" vertex="1">
          <mxGeometry y="26" width="160" height="74" as="geometry" />
        </mxCell>
        <mxCell id="8aeZjbQpbGjvfy1XVlZA-5" value="Driver" style="swimlane;fontStyle=0;childLayout=stackLayout;horizontal=1;startSize=26;fillColor=none;horizontalStack=0;resizeParent=1;resizeParentMax=0;resizeLast=0;collapsible=1;marginBottom=0;" parent="1" vertex="1">
          <mxGeometry x="230" y="400" width="140" height="90" as="geometry" />
        </mxCell>
        <mxCell id="8aeZjbQpbGjvfy1XVlZA-6" value="name: string&#xa;customerID: int&#xa;comments: List&lt;comment&gt;" style="text;strokeColor=none;fillColor=none;align=left;verticalAlign=top;spacingLeft=4;spacingRight=4;overflow=hidden;rotatable=0;points=[[0,0.5],[1,0.5]];portConstraint=eastwest;" parent="8aeZjbQpbGjvfy1XVlZA-5" vertex="1">
          <mxGeometry y="26" width="140" height="64" as="geometry" />
        </mxCell>
        <mxCell id="8aeZjbQpbGjvfy1XVlZA-23" value="" style="endArrow=diamondThin;endFill=1;endSize=24;html=1;entryX=0.514;entryY=1.018;entryDx=0;entryDy=0;entryPerimeter=0;exitX=0.5;exitY=0;exitDx=0;exitDy=0;" parent="1" source="8aeZjbQpbGjvfy1XVlZA-9" target="8aeZjbQpbGjvfy1XVlZA-4" edge="1">
          <mxGeometry width="160" relative="1" as="geometry">
            <mxPoint x="30" y="280" as="sourcePoint" />
            <mxPoint x="190" y="280" as="targetPoint" />
          </mxGeometry>
        </mxCell>
        <mxCell id="8aeZjbQpbGjvfy1XVlZA-24" value="" style="endArrow=diamondThin;endFill=1;endSize=24;html=1;exitX=0.492;exitY=1.004;exitDx=0;exitDy=0;exitPerimeter=0;" parent="1" source="8aeZjbQpbGjvfy1XVlZA-10" target="8aeZjbQpbGjvfy1XVlZA-5" edge="1">
          <mxGeometry width="160" relative="1" as="geometry">
            <mxPoint x="200" y="360" as="sourcePoint" />
            <mxPoint x="360" y="360" as="targetPoint" />
          </mxGeometry>
        </mxCell>
        <mxCell id="8aeZjbQpbGjvfy1XVlZA-25" value="" style="endArrow=diamondThin;endFill=0;endSize=24;html=1;exitX=0.5;exitY=0;exitDx=0;exitDy=0;entryX=1;entryY=0.5;entryDx=0;entryDy=0;" parent="1" source="8aeZjbQpbGjvfy1XVlZA-13" target="8aeZjbQpbGjvfy1XVlZA-4" edge="1">
          <mxGeometry width="160" relative="1" as="geometry">
            <mxPoint x="440" y="90" as="sourcePoint" />
            <mxPoint x="600" y="90" as="targetPoint" />
          </mxGeometry>
        </mxCell>
        <mxCell id="8aeZjbQpbGjvfy1XVlZA-13" value="Comments" style="swimlane;fontStyle=0;childLayout=stackLayout;horizontal=1;startSize=26;fillColor=none;horizontalStack=0;resizeParent=1;resizeParentMax=0;resizeLast=0;collapsible=1;marginBottom=0;" parent="1" vertex="1">
          <mxGeometry x="430" y="187" width="130" height="120" as="geometry" />
        </mxCell>
        <mxCell id="8aeZjbQpbGjvfy1XVlZA-14" value="commentID: int&#xa;userID: int&#xa;rating: int&#xa;commenText: string&#xa;&#xa;&#xa;&#xa;" style="text;strokeColor=none;fillColor=none;align=left;verticalAlign=top;spacingLeft=4;spacingRight=4;overflow=hidden;rotatable=0;points=[[0,0.5],[1,0.5]];portConstraint=eastwest;" parent="8aeZjbQpbGjvfy1XVlZA-13" vertex="1">
          <mxGeometry y="26" width="130" height="94" as="geometry" />
        </mxCell>
        <mxCell id="8aeZjbQpbGjvfy1XVlZA-26" value="" style="endArrow=diamondThin;endFill=0;endSize=24;html=1;exitX=0.5;exitY=1;exitDx=0;exitDy=0;entryX=1;entryY=0.5;entryDx=0;entryDy=0;" parent="1" source="8aeZjbQpbGjvfy1XVlZA-13" target="8aeZjbQpbGjvfy1XVlZA-6" edge="1">
          <mxGeometry width="160" relative="1" as="geometry">
            <mxPoint x="420" y="370" as="sourcePoint" />
            <mxPoint x="580" y="370" as="targetPoint" />
          </mxGeometry>
        </mxCell>
        <mxCell id="-B1I44Br9PL9_KYWqfww-1" value="" style="endArrow=diamondThin;endFill=0;endSize=24;html=1;entryX=0;entryY=0.5;entryDx=0;entryDy=0;exitX=0.5;exitY=0;exitDx=0;exitDy=0;" edge="1" parent="1" source="8aeZjbQpbGjvfy1XVlZA-17" target="8aeZjbQpbGjvfy1XVlZA-4">
          <mxGeometry width="160" relative="1" as="geometry">
            <mxPoint x="60" y="180" as="sourcePoint" />
            <mxPoint x="220" y="180" as="targetPoint" />
          </mxGeometry>
        </mxCell>
        <mxCell id="-B1I44Br9PL9_KYWqfww-2" value="" style="endArrow=diamondThin;endFill=0;endSize=24;html=1;entryX=0;entryY=0.5;entryDx=0;entryDy=0;exitX=1;exitY=0.5;exitDx=0;exitDy=0;" edge="1" parent="1" source="8aeZjbQpbGjvfy1XVlZA-18" target="8aeZjbQpbGjvfy1XVlZA-9">
          <mxGeometry width="160" relative="1" as="geometry">
            <mxPoint x="60" y="360" as="sourcePoint" />
            <mxPoint x="220" y="360" as="targetPoint" />
          </mxGeometry>
        </mxCell>
        <mxCell id="-B1I44Br9PL9_KYWqfww-3" value="&lt;p style=&quot;margin: 0px ; margin-top: 4px ; text-align: center&quot;&gt;&lt;i&gt;&amp;lt;&amp;lt;enumeration&amp;gt;&amp;gt;&lt;/i&gt;&lt;br&gt;&lt;b&gt;PaymentType&lt;/b&gt;&lt;/p&gt;&lt;hr size=&quot;1&quot;&gt;&lt;div&gt;&amp;nbsp;DEBIT&lt;/div&gt;&lt;div&gt;&amp;nbsp;CREDIT&lt;br&gt;&lt;/div&gt;" style="verticalAlign=top;align=left;overflow=fill;fontSize=12;fontFamily=Helvetica;html=1;" vertex="1" parent="1">
          <mxGeometry x="50" y="340" width="100" height="110" as="geometry" />
        </mxCell>
        <mxCell id="-B1I44Br9PL9_KYWqfww-4" value="" style="endArrow=classic;html=1;exitX=0.019;exitY=1.029;exitDx=0;exitDy=0;exitPerimeter=0;entryX=1;entryY=0;entryDx=0;entryDy=0;" edge="1" parent="1" source="8aeZjbQpbGjvfy1XVlZA-10" target="-B1I44Br9PL9_KYWqfww-3">
          <mxGeometry width="50" height="50" relative="1" as="geometry">
            <mxPoint x="200" y="390" as="sourcePoint" />
            <mxPoint x="250" y="340" as="targetPoint" />
          </mxGeometry>
        </mxCell>
        <mxCell id="-B1I44Br9PL9_KYWqfww-5" value="1" style="text;html=1;strokeColor=none;fillColor=none;align=center;verticalAlign=middle;whiteSpace=wrap;rounded=0;" vertex="1" parent="1">
          <mxGeometry x="377" y="60" width="40" height="20" as="geometry" />
        </mxCell>
        <mxCell id="-B1I44Br9PL9_KYWqfww-6" value="0..*" style="text;html=1;strokeColor=none;fillColor=none;align=center;verticalAlign=middle;whiteSpace=wrap;rounded=0;" vertex="1" parent="1">
          <mxGeometry x="500" y="167" width="40" height="20" as="geometry" />
        </mxCell>
        <mxCell id="-B1I44Br9PL9_KYWqfww-7" value="1" style="text;html=1;strokeColor=none;fillColor=none;align=center;verticalAlign=middle;whiteSpace=wrap;rounded=0;" vertex="1" parent="1">
          <mxGeometry x="370" y="460" width="40" height="20" as="geometry" />
        </mxCell>
        <mxCell id="-B1I44Br9PL9_KYWqfww-8" value="0..*" style="text;html=1;strokeColor=none;fillColor=none;align=center;verticalAlign=middle;whiteSpace=wrap;rounded=0;" vertex="1" parent="1">
          <mxGeometry x="500" y="307" width="40" height="20" as="geometry" />
        </mxCell>
        <mxCell id="-B1I44Br9PL9_KYWqfww-9" value="1" style="text;html=1;strokeColor=none;fillColor=none;align=center;verticalAlign=middle;whiteSpace=wrap;rounded=0;" vertex="1" parent="1">
          <mxGeometry x="177" y="60" width="40" height="20" as="geometry" />
        </mxCell>
        <mxCell id="-B1I44Br9PL9_KYWqfww-12" value="0..*" style="text;html=1;strokeColor=none;fillColor=none;align=center;verticalAlign=middle;whiteSpace=wrap;rounded=0;" vertex="1" parent="1">
          <mxGeometry x="40" y="180" width="40" height="20" as="geometry" />
        </mxCell>
        <mxCell id="8aeZjbQpbGjvfy1XVlZA-9" value="Ride" style="swimlane;fontStyle=0;childLayout=stackLayout;horizontal=1;startSize=26;fillColor=none;horizontalStack=0;resizeParent=1;resizeParentMax=0;resizeLast=0;collapsible=1;marginBottom=0;" parent="1" vertex="1">
          <mxGeometry x="220" y="193" width="160" height="120" as="geometry" />
        </mxCell>
        <mxCell id="8aeZjbQpbGjvfy1XVlZA-10" value="RideID: int&#xa;Driver: Driver&#xa;Passenger: Customer&#xa;PointsAvail: RewardPoints&#xa;Payment: string&#xa;&#xa;&#xa;" style="text;strokeColor=none;fillColor=none;align=left;verticalAlign=top;spacingLeft=4;spacingRight=4;overflow=hidden;rotatable=0;points=[[0,0.5],[1,0.5]];portConstraint=eastwest;" parent="8aeZjbQpbGjvfy1XVlZA-9" vertex="1">
          <mxGeometry y="26" width="160" height="94" as="geometry" />
        </mxCell>
        <mxCell id="8aeZjbQpbGjvfy1XVlZA-17" value="RewardPoints" style="swimlane;fontStyle=0;childLayout=stackLayout;horizontal=1;startSize=26;fillColor=none;horizontalStack=0;resizeParent=1;resizeParentMax=0;resizeLast=0;collapsible=1;marginBottom=0;" parent="1" vertex="1">
          <mxGeometry y="200" width="140" height="80" as="geometry" />
        </mxCell>
        <mxCell id="8aeZjbQpbGjvfy1XVlZA-18" value="PointID: int&#xa;PointValue: int&#xa;" style="text;strokeColor=none;fillColor=none;align=left;verticalAlign=top;spacingLeft=4;spacingRight=4;overflow=hidden;rotatable=0;points=[[0,0.5],[1,0.5]];portConstraint=eastwest;" parent="8aeZjbQpbGjvfy1XVlZA-17" vertex="1">
          <mxGeometry y="26" width="140" height="54" as="geometry" />
        </mxCell>
        <mxCell id="-B1I44Br9PL9_KYWqfww-13" value="1" style="text;html=1;strokeColor=none;fillColor=none;align=center;verticalAlign=middle;whiteSpace=wrap;rounded=0;" vertex="1" parent="1">
          <mxGeometry x="190" y="220" width="40" height="20" as="geometry" />
        </mxCell>
        <mxCell id="-B1I44Br9PL9_KYWqfww-14" value="0..*" style="text;html=1;strokeColor=none;fillColor=none;align=center;verticalAlign=middle;whiteSpace=wrap;rounded=0;" vertex="1" parent="1">
          <mxGeometry x="131" y="230" width="40" height="20" as="geometry" />
        </mxCell>
        <mxCell id="-B1I44Br9PL9_KYWqfww-15" value="1" style="text;html=1;strokeColor=none;fillColor=none;align=center;verticalAlign=middle;whiteSpace=wrap;rounded=0;" vertex="1" parent="1">
          <mxGeometry x="300" y="120" width="40" height="20" as="geometry" />
        </mxCell>
        <mxCell id="-B1I44Br9PL9_KYWqfww-16" value="1" style="text;html=1;strokeColor=none;fillColor=none;align=center;verticalAlign=middle;whiteSpace=wrap;rounded=0;" vertex="1" parent="1">
          <mxGeometry x="293" y="380" width="40" height="20" as="geometry" />
        </mxCell>
        <mxCell id="-B1I44Br9PL9_KYWqfww-17" value="1" style="text;html=1;strokeColor=none;fillColor=none;align=center;verticalAlign=middle;whiteSpace=wrap;rounded=0;" vertex="1" parent="1">
          <mxGeometry x="300" y="173" width="40" height="20" as="geometry" />
        </mxCell>
        <mxCell id="-B1I44Br9PL9_KYWqfww-18" value="1" style="text;html=1;strokeColor=none;fillColor=none;align=center;verticalAlign=middle;whiteSpace=wrap;rounded=0;" vertex="1" parent="1">
          <mxGeometry x="300" y="313" width="40" height="20" as="geometry" />
        </mxCell>
      </root>
    </mxGraphModel>
  </diagram>
</mxfile>
